<?xml version="1.0" standalone="no"?>
<!DOCTYPE svg PUBLIC "-//W3C//DTD SVG 20010904//EN"
 "http://www.w3.org/TR/2001/REC-SVG-20010904/DTD/svg10.dtd">
<svg version="1.0" xmlns="http://www.w3.org/2000/svg"
 width="512.000000pt" height="512.000000pt" viewBox="0 0 512.000000 512.000000"
 preserveAspectRatio="xMidYMid meet">
<metadata>
Created by potrace 1.14, written by Peter Selinger 2001-2017
</metadata>
<g transform="translate(0.000000,512.000000) scale(0.100000,-0.100000)"
fill="#000000" stroke="none">
<path d="M2518 4588 c-97 -12 -174 -65 -221 -153 -19 -35 -22 -55 -21 -160 0
-141 12 -314 23 -367 20 -89 91 -168 181 -201 52 -20 155 -22 210 -6 85 26
180 131 194 214 10 61 20 244 21 360 0 104 -3 125 -21 160 -68 127 -187 176
-366 153z"/>
<path d="M1410 4340 c-48 -14 -145 -68 -185 -103 -77 -66 -112 -185 -85 -285
6 -25 63 -120 132 -224 130 -194 174 -236 265 -256 147 -33 312 60 359 200 31
96 19 149 -83 359 -99 203 -131 248 -206 286 -53 26 -149 38 -197 23z"/>
<path d="M3523 4324 c-80 -38 -117 -89 -217 -293 -84 -172 -90 -191 -92 -254
-3 -85 16 -143 67 -201 104 -118 273 -143 401 -59 33 23 146 168 171 221 5 12
14 22 19 22 4 0 8 4 8 9 0 5 18 36 40 69 52 78 71 134 69 204 -4 113 -71 200
-205 268 -90 46 -183 51 -261 14z"/>
<path d="M499 3549 c-62 -9 -127 -39 -172 -78 -49 -43 -232 -262 -268 -320
-95 -154 -68 -380 63 -511 37 -37 44 -44 183 -160 50 -41 92 -77 95 -80 3 -3
59 -50 125 -105 66 -55 122 -102 125 -106 3 -3 122 -103 265 -224 143 -120
276 -232 296 -249 48 -42 83 -71 154 -131 33 -27 71 -59 85 -71 34 -29 234
-198 300 -254 30 -25 74 -62 99 -84 25 -21 57 -47 71 -59 14 -11 40 -33 58
-49 l33 -28 -83 0 c-46 -1 -278 -1 -517 -1 -483 -1 -485 -1 -558 -68 -55 -49
-85 -116 -84 -189 0 -101 52 -182 145 -229 l51 -26 1250 -1 c688 -1 1264 1
1280 4 21 4 34 15 45 37 14 30 18 31 80 35 68 3 69 3 109 -51 17 -24 19 -24
202 -24 207 0 246 5 298 38 135 86 164 251 65 381 -29 38 -66 62 -126 80 -27
8 -187 12 -540 12 -277 1 -507 1 -511 2 -5 0 6 12 25 28 64 53 81 67 92 77 6
6 70 60 141 120 72 59 146 122 166 139 19 17 58 50 85 72 27 23 101 85 164
139 63 53 131 110 150 126 19 16 55 47 80 68 38 32 282 238 439 369 56 48 100
85 191 163 41 35 129 109 194 164 148 124 164 139 203 195 87 127 94 314 17
448 -32 55 -231 290 -281 331 -99 82 -266 96 -387 34 -44 -23 -112 -90 -142
-140 -15 -25 -32 -76 -38 -115 l-12 -69 -79 -3 c-129 -4 -224 -57 -292 -163
-32 -50 -63 -149 -57 -185 2 -14 -7 -16 -54 -14 -102 4 -196 -32 -270 -103
-47 -46 -89 -122 -97 -178 -4 -21 -8 -47 -10 -58 -2 -11 -4 -22 -4 -25 -1 -3
-38 -5 -84 -6 -69 0 -91 -5 -138 -28 -99 -49 -167 -131 -194 -232 -8 -31 -14
-59 -14 -62 5 -36 -1 -39 -73 -39 -91 0 -168 -28 -232 -84 l-46 -41 -46 41
c-64 56 -141 84 -231 84 -46 0 -73 4 -74 11 -7 93 -46 192 -96 242 -74 75
-180 118 -275 112 -32 -2 -58 -1 -59 2 0 3 -2 14 -3 25 -12 96 -40 164 -93
221 -75 82 -182 125 -289 118 l-50 -4 -2 38 c-4 55 -20 108 -37 122 -9 7 -31
14 -50 15 -26 2 -48 14 -85 49 -27 25 -53 46 -59 46 -5 0 -7 9 -4 20 3 13 -5
29 -25 49 -28 28 -34 30 -100 28 l-70 -2 -5 56 c-10 109 -93 226 -197 277 -40
19 -68 26 -145 36 -11 1 -41 -1 -66 -5z"/>
</g>
</svg>
